<?xml version="1.0" encoding="UTF-8"?>
<svg width="120" height="40" viewBox="0 0 120 40" fill="none" xmlns="http://www.w3.org/2000/svg">
  <path d="M20 8 L20 32 L28 32 Q34 32 37 29 Q40 26 40 20 Q40 14 37 11 Q34 8 28 8 Z M26 13 L28 13 Q31 13 32.5 15 Q34 17 34 20 Q34 23 32.5 25 Q31 27 28 27 L26 27 Z" fill="#ffffff"/>
  <path d="M50 8 L50 32 L58 32 Q64 32 67 29 Q70 26 70 20 Q70 14 67 11 Q64 8 58 8 Z M56 13 L58 13 Q61 13 62.5 15 Q64 17 64 20 Q64 23 62.5 25 Q61 27 58 27 L56 27 Z" fill="#ffffff"/>
  <path d="M80 8 L80 32 L88 32 Q94 32 97 29 Q100 26 100 20 Q100 14 97 11 Q94 8 88 8 Z M86 13 L88 13 Q91 13 92.5 15 Q94 17 94 20 Q94 23 92.5 25 Q91 27 88 27 L86 27 Z" fill="#8257e5"/>
</svg> 